# xmcd
#
# Track frame offsets:
#	150
#	16382
#	37828
#	54816
#	71261
#	88640
#	104534
#	123084
#	144378
#	164172
#	180967
#	196953
#	216266
#	234362
#	254271
#	269767
#	284954
#	302722
#	319221
#	336783
#
# Disc length: 4694 seconds
#
# Revision: 0
# Processed by: cddbd v1.5.1PL2 Copyright (c) Steve Scherf et al.
# Submitted via: dBpowerAMP V4.0
#
DISCID=23125414
DTITLE=BRAVO - Black hits - best of vol.1 [CD2)
DYEAR=1900
DGENRE=
TTITLE0=Disco inferno - 50 Cent
TTITLE1=Riders on the storm - Snoop Dogg feat, The Doors
TTITLE2=Get right - Jennifer Lopez feat, Fabolous
TTITLE3=N dey say - Nelly
TTITLE4=The grass in green - Nelly Furtado
TTITLE5=Rapsodia - Dropaflo
TTITLE6=Cater 2 U - Destiny´s child
TTITLE7=Get your shine on - Baby feat, Lil Waybe
TTITLE8=Paradise - 2 Black feat, Alice Elen
TTITLE9=Whoopsie  Daisy - Terri Walker feat, Sway
TTITLE10=Not that kinda girl - Jojo
TTITLE11=Karma - Alice Keys
TTITLE12=Sing - Snoopy Dogg, Charlie Wilson, Justin Timberlake
TTITLE13=Don´t worry - Chingy feat, Janet Jackson
TTITLE14=We´ll be burning - Sean Paul
TTITLE15=Hollaback girll - Gwen Stefani
TTITLE16=An open latter to New York - Beastie boys
TTITLE17=Girls - Cam´ron feat, Mona Lisa
TTITLE18=U R the one - D 12
TTITLE19=Learn Chinese - Jin feat, Wyclef Jean
EXTD=
EXTT0=
EXTT1=
EXTT2=
EXTT3=
EXTT4=
EXTT5=
EXTT6=
EXTT7=
EXTT8=
EXTT9=
EXTT10=
EXTT11=
EXTT12=
EXTT13=
EXTT14=
EXTT15=
EXTT16=
EXTT17=
EXTT18=
EXTT19=
PLAYORDER=
